<svg width="28" height="28" viewBox="0 0 28 28" fill="none" xmlns="http://www.w3.org/2000/svg">
<g clip-path="url(#clip0_26_910)">
<path d="M14 18.6666C16.5773 18.6666 18.6667 16.5772 18.6667 13.9999C18.6667 11.4226 16.5773 9.33325 14 9.33325C11.4227 9.33325 9.33334 11.4226 9.33334 13.9999C9.33334 16.5772 11.4227 18.6666 14 18.6666Z" stroke="white" stroke-width="3"/>
<path d="M25.6667 13.9999C25.6667 19.4996 25.6667 22.2495 23.9581 23.958C22.2496 25.6666 19.4997 25.6666 14 25.6666C8.50029 25.6666 5.75043 25.6666 4.04189 23.958C2.33334 22.2495 2.33334 19.4996 2.33334 13.9999C2.33334 8.50019 2.33334 5.75034 4.04189 4.0418C5.75043 2.33325 8.50029 2.33325 14 2.33325C19.4997 2.33325 22.2496 2.33325 23.9581 4.0418C25.0942 5.17783 25.4749 6.77423 25.6024 9.33325" stroke="white" stroke-width="3" stroke-linecap="round"/>
</g>
<defs>
<clipPath id="clip0_26_910">
<rect width="28" height="28" fill="white"/>
</clipPath>
</defs>
</svg>
