<svg width="46" height="46" viewBox="0 0 46 46" fill="none" xmlns="http://www.w3.org/2000/svg">
<path d="M23.0001 9.58337C15.7984 9.58337 10.4191 14.2608 7.22088 18.0921C4.82091 20.9672 4.82091 25.0329 7.22088 27.908C10.4191 31.7393 15.7984 36.4167 23.0001 36.4167C30.2018 36.4167 35.5811 31.7393 38.7792 27.908C41.1793 25.0329 41.1793 20.9672 38.7792 18.0921C35.5811 14.2608 30.2018 9.58337 23.0001 9.58337Z" stroke="black" stroke-width="5" stroke-linecap="round" stroke-linejoin="round"/>
<path d="M23 28.75C26.1757 28.75 28.75 26.1757 28.75 23C28.75 19.8243 26.1757 17.25 23 17.25C19.8243 17.25 17.25 19.8243 17.25 23C17.25 26.1757 19.8243 28.75 23 28.75Z" stroke="black" stroke-width="5" stroke-linecap="round" stroke-linejoin="round"/>
</svg>
