<svg width="61" height="61" viewBox="0 0 61 61" fill="none" xmlns="http://www.w3.org/2000/svg">
<path d="M39.3953 13.979L46.5842 21.1679M7.625 53.3742L7.7456 52.5299C8.17237 49.5427 8.38577 48.0489 8.87115 46.6543C9.30186 45.4168 9.89023 44.24 10.6218 43.1532C11.4462 41.9281 12.5131 40.8611 14.647 38.7274L44.2522 9.12193C46.2375 7.13676 49.456 7.13676 51.4413 9.12193C53.4263 11.1071 53.4263 14.3257 51.4413 16.3109L21.2927 46.4594C19.3568 48.3954 18.3889 49.3632 17.2864 50.1328C16.3078 50.816 15.2524 51.3821 14.1418 51.8192C12.8906 52.3118 11.5487 52.5825 8.86516 53.1239L7.625 53.3742Z" stroke="#D2042D" stroke-width="5" stroke-linecap="round" stroke-linejoin="round"/>
</svg>
